<svg
  width="129"
  height="129"
  viewBox="0 0 1120 1120"
  xmlns="http://www.w3.org/2000/svg"
>
  <g transform="translate(80, 80) scale(3)">
    <path
      fill="#1e88e5"
      d="M 161.097656 121.511719 L 161.097656 270.199219 C 167.503906 271.402344 174.113281 272.035156 180.863281 272.035156 C 187.621094 272.035156 194.230469 271.410156 200.632812 270.226562 L 200.632812 121.511719 L 161.097656 121.511719 "
    />
    <path
      fill="#1e88e5"
      d="M 107.722656 242.964844 C 118.90625 253.503906 132.359375 261.660156 147.257812 266.613281 L 147.257812 149.75 L 107.722656 149.75 L 107.722656 242.964844 "
    />
    <path
      fill="#1e88e5"
      d="M 214.472656 266.695312 C 229.386719 261.800781 242.835938 253.726562 254.007812 243.246094 L 254.007812 93.269531 L 214.472656 93.269531 L 214.472656 266.695312 "
    />
    <path
      fill="#2196f3"
      d="M 334.769531 169.34375 L 304.84375 98.792969 L 274.917969 169.34375 L 293.1875 169.34375 C 291.046875 229.445312 241.480469 277.683594 180.863281 277.683594 C 118.886719 277.683594 68.464844 227.261719 68.464844 165.285156 C 68.464844 103.304688 118.886719 52.886719 180.863281 52.886719 C 229.421875 52.886719 270.882812 83.835938 286.5625 127.039062 L 301.226562 92.472656 C 295.386719 82.828125 288.390625 73.917969 280.3125 65.835938 C 267.402344 52.925781 252.359375 42.785156 235.613281 35.703125 C 218.265625 28.363281 199.84375 24.644531 180.863281 24.644531 C 161.886719 24.644531 143.464844 28.363281 126.117188 35.703125 C 109.367188 42.785156 94.328125 52.925781 81.417969 65.835938 C 68.507812 78.75 58.367188 93.785156 51.285156 110.535156 C 43.945312 127.882812 40.226562 146.304688 40.226562 165.285156 C 40.226562 184.265625 43.945312 202.683594 51.285156 220.03125 C 58.367188 236.78125 68.507812 251.820312 81.417969 264.730469 C 94.328125 277.640625 109.367188 287.78125 126.117188 294.863281 C 143.464844 302.203125 161.886719 305.921875 180.863281 305.921875 C 199.84375 305.921875 218.265625 302.203125 235.613281 294.863281 C 252.359375 287.78125 267.402344 277.640625 280.3125 264.730469 C 293.222656 251.820312 303.363281 236.78125 310.445312 220.03125 C 317.257812 203.921875 320.949219 186.886719 321.445312 169.34375 L 334.769531 169.34375 "
    />
  </g>
</svg>